<?xml version="1.0" encoding="utf-8"?>
<?xml-stylesheet type="text/xsl" href="rss1.xsl"?>
<rss version="2.0" xmlns:atom="http://www.w3.org/2005/Atom" xmlns:content="http://purl.org/rss/1.0/modules/content/" xmlns:dc="http://purl.org/dc/elements/1.1/" xmlns:media="http://search.yahoo.com/mrss/">
<channel>
 <title>Getty</title>
 <link>http://www.gettyimg.com/</link>
 <atom:link href="http://www.gettyimg.com/" rel="self" type="application/rss+xml" />

 
                <item>
                <title><![CDATA[【HD Live Performances】HDTV - Foster The People - 360 Sessions (2012) 1080i]]></title>
                <link><![CDATA[https://sharemania.us/threads/foster-the-people-360-sessions-2012-1080i.228786/]]></link>
                <description><![CDATA[<article>
<blockquote class="messageText SelectQuoteContainer ugc baseHtml">
Foster The People<br>
360 Sessions S02E12<br>
London, Uk<br>
Aug 13, 2012<br>
<br>
(this is a backup copy of the original file uploaded by crusha, since he has not updated the links, I leave the file here and all the thanks go to him)<br>
<br>
<img src="https://i.imgur.com/8DgSebR.jpg" class="bbCodeImage LbImage" alt="[​IMG]" data-url="https://i.imgur.com/8DgSebR.jpg" style=""><br>
<img src="http://i.imgur.com/6bGwkyf.jpg" class="bbCodeImage LbImage" alt="[​IMG]" data-url="http://i.imgur.com/6bGwkyf.jpg" style=""> <img src="http://i.imgur.com/IflwTiA.jpg" class="bbCodeImage LbImage" alt="[​IMG]" data-url="http://i.imgur.com/IflwTiA.jpg" style=""> <img src="http://i.imgur.com/RGq1MSM.jpg" class="bbCodeImage LbImage" alt="[​IMG]" data-url="http://i.imgur.com/RGq1MSM.jpg" style=""> <img src="http://i.imgur.com/d0JboSs.jpg" class="bbCodeImage LbImage" alt="[​IMG]" data-url="http://i.imgur.com/d0JboSs.jpg" style=""> <img src="http://i.imgur.com/6NI9oUK.jpg" class="bbCodeImage LbImage" alt="[​IMG]" data-url="http://i.imgur.com/6NI9oUK.jpg" style=""> <img src="http://i.imgur.com/n1XaGQz.jpg" class="bbCodeImage LbImage" alt="[​IMG]" data-url="http://i.imgur.com/n1XaGQz.jpg" style=""><br>
<br>
<div class="ToggleTriggerAnchor bbCodeSpoilerContainer">
<button type="button" class="button bbCodeSpoilerButton ToggleTrigger Tooltip JsOnly" data-target="> .SpoilerTarget"><span>Spoiler</span></button>
<div class="SpoilerTarget bbCodeSpoilerText">General<br>
ID : 1 (0x1)<br>
Complete name : Foster The People - 360 Sessions (Stingray.Concerts.HD.1080i.DD5.1).-Crusha.ts<br>
Format : MPEG-TS<br>
File size : 482 MiB<br>
Duration : 18mn 42s<br>
Overall bit rate mode : Variable<br>
Overall bit rate : 3 600 Kbps<br>
<br>
Video<br>
ID : 2833 (0xB11)<br>
Menu ID : 1522 (0x5F2)<br>
Format : AVC<br>
Format/Info : Advanced Video Codec<br>
Format profile : High@L4<br>
Format settings, CABAC : Yes<br>
Format settings, ReFrames : 4 frames<br>
Codec ID : 27<br>
Duration : 18mn 42s<br>
Bit rate : 3 034 Kbps<br>
Width : 1 920 pixels<br>
Height : 1 080 pixels<br>
Display aspect ratio : 16:9<br>
Frame rate : 29.970 fps<br>
Standard : Component<br>
Color space : YUV<br>
Chroma subsampling : 4:2:0<br>
Bit depth : 8 bits<br>
Scan type : MBAFF<br>
Scan order : Top Field First<br>
Bits/(Pixel*Frame) : 0.049<br>
Stream size : 406 MiB (84%)<br>
Color range : Limited<br>
Color primaries : BT.709<br>
Transfer characteristics : BT.709<br>
Matrix coefficients : BT.709<br>
<br>
Audio<br>
ID : 3758 (0xEAE)<br>
Menu ID : 1522 (0x5F2)<br>
Format : AC-3<br>
Format/Info : Audio Coding 3<br>
Mode extension : CM (complete main)<br>
Format settings, Endianness : Big<br>
Codec ID : 6<br>
Duration : 18mn 42s<br>
Bit rate mode : Constant<br>
Bit rate : 384 Kbps<br>
Channel(s) : 6 channels<br>
Channel positions : Front: L C R, Side: L R, LFE<br>
Sampling rate : 48.0 KHz<br>
Compression mode : Lossy<br>
Stream size : 51.4 MiB (11%)<br>
Language : English</div>
</div><br>
<div class="bbCodeBlock bbCodeVfcHH HiddenContent">
<div class="attribution type">Hidden Content:</div>
<blockquote>You must reply before you can see the hidden data contained here.</blockquote>
</div>
<div class="messageTextEndMarker">&nbsp;</div>
</blockquote>
</article>]]></description>
                <author><![CDATA[Nero]]></author>
                </item>

                
                <item>
                <title><![CDATA[【Albums (lossless)】FLAC - TOKIO HOTEL - 2022 - 2001 [24bits-44100Hz]]]></title>
                <link><![CDATA[https://sharemania.us/threads/tokio-hotel-2022-2001-24bits-44100hz.228785/]]></link>
                <description><![CDATA[<article>
<blockquote class="messageText SelectQuoteContainer ugc baseHtml">
<div style="text-align: center"><img src="https://imgur.com/dndWjsp" class="bbCodeImage LbImage" alt="[​IMG]" data-url="https://imgur.com/dndWjsp" style=""><br>
<br>
<b>Performer:</b> <b>Tokio Hotel<br>
<b>Album:</b> 2001<br>
<b><b>Published:</b> <b>2022<br>
Genre:</b> <b>Pop Rock</b><br>
Country: Germany<br>
<b>File Size:</b> 623,1<b>MB [24bits-44100Hz]</b></b></b><br>
<br>
<b><b>Track listing:</b><br>
<br>
1 Durch den Monsun 2020<br>
2 HIM<br>
3 White Lies<br>
4 Ain't Happy<br>
5 Just A Moment (Ft. VVAVES)<br>
6 Hungover You<br>
7 Smells Like Summer (Ft. ÁSDÍS)<br>
8 Happy People (Ft. Daði Freyr)<br>
9 Here Comes The Night<br>
10 Dreamer<br>
11 Runaway<br>
12 When We Were Younger<br>
13 Bad Love<br>
14 Another Lover<br>
15 Berlin (Ft. VVAVES)<br>
16 Back To The Ocean<br>
<br>
<a href="https://filedot.to/13mt7kvsmqg2" target="_blank" class="externalLink" rel="nofollow">https://filedot.to/13mt7kvsmqg2</a></b>​</div>
<div class="messageTextEndMarker">&nbsp;</div>
</blockquote>
</article>]]></description>
                <author><![CDATA[XRB80]]></author>
                </item>

                
                <item>
                <title><![CDATA[【Albums (lossless)】FLAC - TOKIO HOTEL - 2022 - 2001 [24bits-44100Hz]]]></title>
                <link><![CDATA[https://sharemania.us/threads/tokio-hotel-2022-2001-24bits-44100hz.228784/]]></link>
                <description><![CDATA[<article>
<blockquote class="messageText SelectQuoteContainer ugc baseHtml">
<div style="text-align: center"><img src="https://imgur.com/dndWjsp" class="bbCodeImage LbImage" alt="[​IMG]" data-url="https://imgur.com/dndWjsp" style=""> <br>
<br>
<b>Performer:</b> <b>Tokio Hotel</b>​</div><b><div style="text-align: center"><b>Album:</b> 2001​</div><b><div style="text-align: center"><b>Published:</b> <b>2022<br>
Genre:</b> <b>Pop Rock</b>​</div></b><br>
<div style="text-align: center"><b>Country: Germany</b>​</div><b><div style="text-align: center"><b>File Size:</b> 623,1<b>MB [24bits-44100Hz]</b>​</div></b></b><br>
<div style="text-align: center">​</div><b><div style="text-align: center"><b>Track listing:</b><br>
<br>
1 Durch den Monsun 2020<br>
2 HIM<br>
3 White Lies<br>
4 Ain't Happy<br>
5 Just A Moment (Ft. VVAVES)<br>
6 Hungover You<br>
7 Smells Like Summer (Ft. ÁSDÍS)<br>
8 Happy People (Ft. Daði Freyr)<br>
9 Here Comes The Night<br>
10 Dreamer<br>
11 Runaway<br>
12 When We Were Younger<br>
13 Bad Love<br>
14 Another Lover<br>
15 Berlin (Ft. VVAVES)<br>
16 Back To The Ocean<br>
<br>
<a href="https://filedot.to/13mt7kvsmqg2" target="_blank" class="externalLink" rel="nofollow">https://filedot.to/13mt7kvsmqg2</a>​</div></b>
<div class="messageTextEndMarker">&nbsp;</div>
</blockquote>
</article>]]></description>
                <author><![CDATA[XRB80]]></author>
                </item>

                </channel></rss>